<?xml version="1.0" ?><svg height="36" id="svg4488" version="1.1" width="36" xmlns="http://www.w3.org/2000/svg" xmlns:cc="http://creativecommons.org/ns#" xmlns:dc="http://purl.org/dc/elements/1.1/" xmlns:inkscape="http://www.inkscape.org/namespaces/inkscape" xmlns:rdf="http://www.w3.org/1999/02/22-rdf-syntax-ns#" xmlns:sodipodi="http://sodipodi.sourceforge.net/DTD/sodipodi-0.dtd" xmlns:svg="http://www.w3.org/2000/svg"><defs id="defs4490"/><g id="layer1" transform="translate(0,-1016.3622)"><path d="m 18,1020.3652 c 1.71394,0 3.2519,0.4426 4.32813,1.1231 1.07622,0.6804 1.66406,1.5574 1.66406,2.4824 l 0,0.3886 -0.99805,0 -2.5,0 c -0.82235,0 -1.5,0.6777 -1.5,1.5 0,0.8224 0.67765,1.5 1.5,1.5 l 2.5,0 0.99805,0 0,1 -0.99805,0 -2.5,0 c -0.82235,0 -1.5,0.6777 -1.5,1.5 0,0.8224 0.67765,1.5 1.5,1.5 l 2.5,0 0.99805,0 0,1 -0.99805,0 -2.5,0 c -0.82235,0 -1.5,0.6777 -1.5,1.5 0,0.8224 0.67765,1.5 1.5,1.5 l 2.5,0 0.90625,0 c -0.20045,0.6954 -0.73706,1.3431 -1.57226,1.8711 -0.80717,0.5103 -1.87401,0.8852 -3.08008,1.0411 -0.40202,0.052 -0.81956,0.08 -1.24805,0.08 -1.71392,0 -3.25385,-0.4407 -4.33007,-1.1211 -0.83522,-0.5281 -1.37181,-1.1758 -1.57227,-1.8711 l 0.0312,0 0.87109,0 2.5,0 c 0.82236,0 1.5,-0.6777 1.5,-1.5 0,-0.8224 -0.67764,-1.5 -1.5,-1.5 l -2.5,0 -0.99414,0 0,-1 0.99414,0 2.5,0 c 0.82236,0 1.5,-0.6777 1.5,-1.5 0,-0.8224 -0.67764,-1.5 -1.5,-1.5 l -2.5,0 -0.99414,0 0,-1 0.99414,0 2.5,0 c 0.82236,0 1.5,-0.6777 1.5,-1.5 0,-0.8224 -0.67764,-1.5 -1.5,-1.5 l -2.5,0 -0.99414,0 0,-0.3887 c 0,-0.1156 0.009,-0.2299 0.0274,-0.3438 0.12723,-0.7968 0.69501,-1.5433 1.63672,-2.1386 1.07622,-0.6804 2.61615,-1.1231 4.33007,-1.1231 z m -5.99414,4.9941 0.99414,0 2.5,0 c 0.28565,0 0.5,0.2144 0.5,0.5 0,0.2857 -0.21435,0.5 -0.5,0.5 l -2.5,0 -0.99414,0 z m 8.48828,0 2.5,0 0.99805,0 0,1 -0.99805,0 -2.5,0 c -0.28564,0 -0.5,-0.2143 -0.5,-0.5 0,-0.2856 0.21436,-0.5 0.5,-0.5 z m -8.48828,4 0.99414,0 2.5,0 c 0.28565,0 0.5,0.2144 0.5,0.5 0,0.2857 -0.21435,0.5 -0.5,0.5 l -2.5,0 -0.99414,0 z m 8.48828,0 2.5,0 0.99805,0 0,1 -0.99805,0 -2.5,0 c -0.28564,0 -0.5,-0.2143 -0.5,-0.5 0,-0.2856 0.21436,-0.5 0.5,-0.5 z m -8.48828,4 0.99414,0 2.5,0 c 0.28565,0 0.5,0.2144 0.5,0.5 0,0.2857 -0.21435,0.5 -0.5,0.5 l -2.5,0 -0.95898,0 -0.0352,-0.3925 z m 8.48828,0 2.5,0 0.99805,0 0,0.6465 -0.0176,0.3535 -0.98047,0 -2.5,0 c -0.28564,0 -0.5,-0.2143 -0.5,-0.5 0,-0.2856 0.21436,-0.5 0.5,-0.5 z m -5.49218,5.5411 c 0.91352,0.2823 1.92101,0.4511 2.99804,0.4511 1.07705,0 2.08453,-0.1688 2.99805,-0.4511 l 0,0.4707 c 0,0.3064 -0.10008,0.5728 -0.23437,0.7441 -0.1343,0.1713 -0.27999,0.2441 -0.43164,0.2441 l -0.33204,0 -4,0 -0.33203,0 c -0.15166,0 -0.29734,-0.073 -0.43164,-0.2441 -0.13429,-0.1713 -0.23437,-0.4377 -0.23437,-0.7441 z m 1.99804,2.4589 2,0 0,2 0,2 -2,0 0,-2 z m -4.41796,5 3.41796,0 4,0 3.41602,0 c 0.35246,0 0.58398,0.2368 0.58398,0.5 l 0,1 c 0,0.2633 -0.23152,0.5 -0.58398,0.5 l -10.83398,0 c -0.35246,0 -0.58204,-0.2367 -0.58204,-0.5 l 0,-1 c 0,-0.2632 0.22957,-0.5 0.58204,-0.5 z" id="rect4903" style="font-size:medium;font-style:normal;font-variant:normal;font-weight:normal;font-stretch:normal;text-indent:0;text-align:start;text-decoration:none;line-height:normal;letter-spacing:normal;word-spacing:normal;text-transform:none;direction:ltr;block-progression:tb;writing-mode:lr-tb;text-anchor:start;baseline-shift:baseline;color:#000000;fill:#000000;fill-opacity:1;fill-rule:nonzero;stroke:none;visibility:visible;display:inline;overflow:visible;enable-background:accumulate;font-family:sans-serif"/></g></svg>