<?xml version="1.0" encoding="UTF-8" standalone="no"?>
<svg
   xmlns:dc="http://purl.org/dc/elements/1.1/"
   xmlns:cc="http://creativecommons.org/ns#"
   xmlns:rdf="http://www.w3.org/1999/02/22-rdf-syntax-ns#"
   xmlns:svg="http://www.w3.org/2000/svg"
   xmlns="http://www.w3.org/2000/svg"
   xmlns:sodipodi="http://sodipodi.sourceforge.net/DTD/sodipodi-0.dtd"
   xmlns:inkscape="http://www.inkscape.org/namespaces/inkscape"
   viewBox="0 0 89.538 89.52"
   version="1.1"
   id="svg32"
   sodipodi:docname="favicon.logo.svg"
   width="89.538002"
   height="89.519997"
   inkscape:version="1.0.2 (e86c870879, 2021-01-15, custom)">
  <title
     id="title861">Image</title>
  <metadata
     id="metadata36">
    <rdf:RDF>
      <cc:Work
         rdf:about="">
        <dc:format>image/svg+xml</dc:format>
        <dc:type
           rdf:resource="http://purl.org/dc/dcmitype/StillImage" />
        <dc:title>Image</dc:title>
      </cc:Work>
    </rdf:RDF>
  </metadata>
  <sodipodi:namedview
     pagecolor="#ffffff"
     bordercolor="#666666"
     borderopacity="1"
     objecttolerance="10"
     gridtolerance="10"
     guidetolerance="10"
     inkscape:pageopacity="0"
     inkscape:pageshadow="2"
     inkscape:window-width="3440"
     inkscape:window-height="1377"
     id="namedview34"
     showgrid="false"
     inkscape:zoom="11.745042"
     inkscape:cx="87.660579"
     inkscape:cy="44.793503"
     inkscape:window-x="-8"
     inkscape:window-y="32"
     inkscape:window-maximized="1"
     inkscape:current-layer="layer2" />
  <defs
     id="defs4">
    <style
       id="style2">.cls-1,.cls-2{fill:none;stroke:gray;stroke-miterlimit:11.34;}.cls-1{stroke-width:1.61px;}.cls-2{stroke-width:1.5px;}.cls-3{fill:gray;}</style>
  </defs>
  <g
     inkscape:groupmode="layer"
     id="layer3"
     inkscape:label="Bgr">
    <circle
       style="stroke-width:46.4923;stroke-linecap:round;stroke-linejoin:round;fill:#ffffff"
       id="path863"
       cx="44.769001"
       cy="44.769001"
       r="44.769001" />
  </g>
  <g
     inkscape:groupmode="layer"
     id="layer2"
     inkscape:label="Head"
     style="display:inline">
    <g
       id="Слой_2"
       data-name="Слой 2"
       transform="matrix(0.61802108,0,0,0.61802108,-98.937516,15.830802)">
      <g
         id="svg201">
        <g
           id="layer1">
          <path
             id="path37385-7-6"
             class="cls-1"
             d="m 245.52,77.73 31.61,11 9.68,-0.83 c 7.39,-5 8.44,-12.15 9.78,-18.11 C 281.19,54.5 275.52,45.91 259.75,37.9"
             transform="translate(-5.64)" />
          <path
             id="path40052-7-6"
             class="cls-1"
             d="m 285.15,66.9 -26,-17.5"
             transform="translate(-5.64)" />
          <path
             id="path40410-2-7"
             class="cls-1"
             d="m 277.09,88.56 8.06,-21.67 a 27,27 0 0 0 5.61,2.31 47.63,47.63 0 0 0 5.46,0.54"
             transform="translate(-5.64)" />
          <path
             id="path180-1-8"
             class="cls-1"
             d="m 254.41,67.32 5.18,5.75 6.34,-1.41 12.48,13 14.13,-3"
             transform="translate(-5.64)" />
          <path
             id="path4348-3-7"
             class="cls-1"
             d="m 263,61.59 c 1.12,1.19 0.54,3.55 2.72,4.31 a 2.63,2.63 0 0 0 3.58,-1.28 c 0.52,-1.58 -0.13,-2.35 -1.19,-3.26 -1.69,-1.46 -4.35,-2.63 -9.79,-3.34 a 45.41,45.41 0 0 1 4.68,3.57"
             transform="translate(-5.64)" />
          <path
             id="path14092-0-0"
             class="cls-1"
             d="m 254.15,69.24 c -2,5.82 -7.26,10.54 -15.08,8.48 -7.82,-2.06 -9.94,-10 -8,-16 a 12.66,12.66 0 0 1 15.44,-7.89 12.14,12.14 0 0 1 7.64,15.41 z"
             transform="translate(-5.64)" />
          <path
             id="path14092-1-2-4"
             class="cls-1"
             d="m 249.91,68.26 c -1.33,3.81 -4.74,6.89 -9.85,5.54 -5.11,-1.35 -6.5,-6.52 -5.25,-10.43 a 8.29,8.29 0 0 1 10.1,-5.16 7.93,7.93 0 0 1 5,10.05 z"
             transform="translate(-5.64)" />
          <path
             id="path16174-9-1"
             class="cls-1"
             d="m 249.12,54.86 c 6.44,3.12 10.06,-5.06 10.06,-5.06 L 259.55,34 c 0,0 -13.75,-8.56 -21,-11.47 a 7,7 0 0 0 -6.66,1 c 0,0 -23.22,-11.07 -40.75,-21.64 0,0 12.12,32.51 43,54.15 3.43,-2.07 8.52,-4.29 15,-1.18 z"
             transform="translate(-5.64)" />
          <path
             id="path16176-4-6"
             class="cls-2"
             d="m 231.64,71.05 c 0,0 -13.52,-0.3 -20.37,-1.56 -6.1,-1.12 -25,-6.93 -25,-6.93 C 196.46,56.3 198.61,55 198.61,55"
             transform="translate(-5.64)" />
          <path
             id="path16176-4-0-2"
             class="cls-2"
             d="m 233.51,56.42 -23.08,4.87 -13,-7.28 c 10.41,-6.36 14.74,-7.87 24.14,-8.94"
             transform="translate(-5.64)" />
          <path
             id="path31597-4"
             class="cls-1"
             d="m 191.67,2.38 24,21.46 3.24,8.8 19.71,9.65 6.61,11.27"
             transform="translate(-5.64)" />
        </g>
      </g>
    </g>
  </g>
</svg>
