<svg xmlns="http://www.w3.org/2000/svg" viewBox="0 0 317.64 89.52"><defs><style>.cls-1,.cls-2{fill:none;stroke:gray;stroke-miterlimit:11.34;}.cls-1{stroke-width:1.61px;}.cls-2{stroke-width:1.5px;}.cls-3{fill:gray;}</style></defs><g id="Слой_2" data-name="Слой 2"><g id="svg201"><g id="layer1"><path id="path37385-7-6" class="cls-1" d="M245.52,77.73l31.61,11,9.68-.83c7.39-5,8.44-12.15,9.78-18.11-15.4-15.29-21.07-23.88-36.84-31.89" transform="translate(-5.64)"/><path id="path40052-7-6" class="cls-1" d="M285.15,66.9l-26-17.5" transform="translate(-5.64)"/><path id="path40410-2-7" class="cls-1" d="M277.09,88.56l8.06-21.67a27,27,0,0,0,5.61,2.31,47.63,47.63,0,0,0,5.46.54" transform="translate(-5.64)"/><path id="path180-1-8" class="cls-1" d="M254.41,67.32l5.18,5.75,6.34-1.41,12.48,13,14.13-3" transform="translate(-5.64)"/><path id="path4348-3-7" class="cls-1" d="M263,61.59c1.12,1.19.54,3.55,2.72,4.31a2.63,2.63,0,0,0,3.58-1.28c.52-1.58-.13-2.35-1.19-3.26-1.69-1.46-4.35-2.63-9.79-3.34A45.41,45.41,0,0,1,263,61.59" transform="translate(-5.64)"/><path id="path14092-0-0" class="cls-1" d="M254.15,69.24c-2,5.82-7.26,10.54-15.08,8.48s-9.94-10-8-16a12.66,12.66,0,0,1,15.44-7.89A12.14,12.14,0,0,1,254.15,69.24Z" transform="translate(-5.64)"/><path id="path14092-1-2-4" class="cls-1" d="M249.91,68.26c-1.33,3.81-4.74,6.89-9.85,5.54s-6.5-6.52-5.25-10.43a8.29,8.29,0,0,1,10.1-5.16,7.93,7.93,0,0,1,5,10.05Z" transform="translate(-5.64)"/><path id="path16174-9-1" class="cls-1" d="M249.12,54.86c6.44,3.12,10.06-5.06,10.06-5.06L259.55,34s-13.75-8.56-21-11.47a7,7,0,0,0-6.66,1S208.67,12.46,191.14,1.89c0,0,12.12,32.51,43,54.15,3.43-2.07,8.52-4.29,15-1.18Z" transform="translate(-5.64)"/><path id="path16176-4-6" class="cls-2" d="M231.64,71.05s-13.52-.3-20.37-1.56c-6.1-1.12-25-6.93-25-6.93C196.46,56.3,198.61,55,198.61,55" transform="translate(-5.64)"/><path id="path16176-4-0-2" class="cls-2" d="M233.51,56.42l-23.08,4.87-13-7.28c10.41-6.36,14.74-7.87,24.14-8.94" transform="translate(-5.64)"/><path id="path31597-4" class="cls-1" d="M191.67,2.38l24,21.46,3.24,8.8,19.71,9.65,6.61,11.27" transform="translate(-5.64)"/></g><path class="cls-3" d="M34.38,31.24v26A25.76,25.76,0,0,1,33,66.58a9.55,9.55,0,0,1-4.53,5.16,18.19,18.19,0,0,1-8.34,1.62,18.7,18.7,0,0,1-8.49-1.62,9.52,9.52,0,0,1-4.56-5.16,25.76,25.76,0,0,1-1.41-9.36v-26H8.1v26a23.36,23.36,0,0,0,1.17,8.16,7.91,7.91,0,0,0,3.78,4.41,15.3,15.3,0,0,0,7,1.35A15.14,15.14,0,0,0,27,69.79a7.91,7.91,0,0,0,3.78-4.41,23.36,23.36,0,0,0,1.17-8.16v-26Z" transform="translate(-5.64)"/><path class="cls-3" d="M59.46,30.76a19.73,19.73,0,0,1,7.23,1.08,7,7,0,0,1,3.87,3.78,19.11,19.11,0,0,1,1.2,7.56,19.36,19.36,0,0,1-1.17,7.5,6.74,6.74,0,0,1-3.84,3.75,20,20,0,0,1-7.17,1q-2.4,0-4.53,0t-3.87-.15l-2.94-.18a10,10,0,0,1-1.68-.18l.18-1.62H59.46a16.75,16.75,0,0,0,5.73-.9,5.47,5.47,0,0,0,3.09-3.06,16.19,16.19,0,0,0,1-6.24,16.15,16.15,0,0,0-1-6.27,5.59,5.59,0,0,0-3.09-3.06,15.48,15.48,0,0,0-5.73-.87q-4.68,0-8.07.06t-4.59.18L46,31.24q2.16-.24,4-.33t4.11-.12Q56.34,30.76,59.46,30.76Zm-11,.48v41.4H46V31.24Z" transform="translate(-5.64)"/><path class="cls-3" d="M95.28,30.52q2.58,0,4.56.12t3.69.33a30.59,30.59,0,0,1,3.45.63l-.42,1.8Q104.7,33.16,103,33t-3.54-.21q-1.83-.06-4.11-.06a18.15,18.15,0,0,0-6.3,1,8.67,8.67,0,0,0-4.14,3.15,14.79,14.79,0,0,0-2.25,5.91A51.86,51.86,0,0,0,82,52a44.65,44.65,0,0,0,1.11,11,11.14,11.14,0,0,0,3.6,6.18,10.46,10.46,0,0,0,6.63,2,13.26,13.26,0,0,0,5-.87,18.09,18.09,0,0,0,4-2.19q1.8-1.32,3.36-2.7l.42,1.68a19.36,19.36,0,0,1-3.45,3.12,18.15,18.15,0,0,1-4.41,2.31,15.39,15.39,0,0,1-5.28.87,12.63,12.63,0,0,1-7.83-2.25,13,13,0,0,1-4.35-7,44.86,44.86,0,0,1-1.38-12.24,42.08,42.08,0,0,1,1.53-12.66,11.37,11.37,0,0,1,5-6.69Q89.4,30.52,95.28,30.52Zm12.48,18.12v24H106l-.54-6-.18-.84V48.64Z" transform="translate(-5.64)"/><path class="cls-3" d="M131.88,30.76a21.42,21.42,0,0,1,7.2,1,6.68,6.68,0,0,1,3.9,3.54,17.24,17.24,0,0,1,1.2,7.17,18.8,18.8,0,0,1-.78,5.91,6.68,6.68,0,0,1-2.46,3.48,9.86,9.86,0,0,1-4.38,1.53v.3a4,4,0,0,1,1.95,1.08,10.22,10.22,0,0,1,1.59,2,12.13,12.13,0,0,1,1.2,2.67l4.38,13.2H143l-4.2-13a8,8,0,0,0-2.55-4,6.45,6.45,0,0,0-3.93-1.17q-3.48,0-6.21-.06l-4.53-.12q-1.8-.06-2.58-.12l.18-1.92h12.72a16.75,16.75,0,0,0,5.73-.9,5.52,5.52,0,0,0,3.09-2.91,14.27,14.27,0,0,0,1-5.85,14.27,14.27,0,0,0-1-5.85,5.52,5.52,0,0,0-3.09-2.91,16,16,0,0,0-5.73-.84q-4.68,0-8.07.06t-4.59.12l-.84-1.86q2.16-.24,4.05-.33t4.11-.12Q128.76,30.76,131.88,30.76Zm-11,.48v41.4h-2.46V31.24Z" transform="translate(-5.64)"/><path class="cls-3" d="M169,31.24a1.22,1.22,0,0,1,.69.18,1,1,0,0,1,.39.6L184.5,72.64h-2.58l-12.6-36-.6-1.68-.6-1.68h-1.68l-.6,1.68-.6,1.68-12.6,36h-2.58L164.52,32a1,1,0,0,1,.42-.6,1.26,1.26,0,0,1,.66-.18Zm8.76,24.66v2.16h-21V55.9Z" transform="translate(-5.64)"/><path class="cls-3" d="M305.64,31.24h5.91q3,0,5.91.06t5.82.18l-.12,1.86h-17.1a4.41,4.41,0,0,0-3.3,1.29A4.64,4.64,0,0,0,301.5,38V65.86a4.64,4.64,0,0,0,1.26,3.39,4.41,4.41,0,0,0,3.3,1.29h17.1l.12,1.86q-2.88.12-5.82.18t-5.91.06h-5.91a6.51,6.51,0,0,1-4.77-1.8A6.13,6.13,0,0,1,299,66.28V37.6A6.1,6.1,0,0,1,300.87,33,6.57,6.57,0,0,1,305.64,31.24Zm-5.58,18.24,20.64.06v2l-20.64.06Z" transform="translate(-5.64)"/></g></g></svg>