<?xml version="1.0" encoding="UTF-8" standalone="no"?>
<svg
   xmlns:dc="http://purl.org/dc/elements/1.1/"
   xmlns:cc="http://creativecommons.org/ns#"
   xmlns:rdf="http://www.w3.org/1999/02/22-rdf-syntax-ns#"
   xmlns:svg="http://www.w3.org/2000/svg"
   xmlns="http://www.w3.org/2000/svg"
   xmlns:sodipodi="http://sodipodi.sourceforge.net/DTD/sodipodi-0.dtd"
   xmlns:inkscape="http://www.inkscape.org/namespaces/inkscape"
   version="1.1"
   id="Capa_1"
   x="0px"
   y="0px"
   viewBox="0 0 512 512"
   style="enable-background:new 0 0 512 512;"
   xml:space="preserve"
   sodipodi:docname="menu.svg"
   inkscape:version="1.0.2 (e86c870879, 2021-01-15, custom)"><metadata
   id="metadata73"><rdf:RDF><cc:Work
       rdf:about=""><dc:format>image/svg+xml</dc:format><dc:type
         rdf:resource="http://purl.org/dc/dcmitype/StillImage" /></cc:Work></rdf:RDF></metadata><defs
   id="defs71" /><sodipodi:namedview
   pagecolor="#ffffff"
   bordercolor="#666666"
   borderopacity="1"
   objecttolerance="10"
   gridtolerance="10"
   guidetolerance="10"
   inkscape:pageopacity="0"
   inkscape:pageshadow="2"
   inkscape:window-width="3440"
   inkscape:window-height="1377"
   id="namedview69"
   showgrid="false"
   inkscape:zoom="2.0039062"
   inkscape:cx="256"
   inkscape:cy="256"
   inkscape:window-x="-8"
   inkscape:window-y="32"
   inkscape:window-maximized="1"
   inkscape:current-layer="Capa_1" />
<g
   id="g6">
	<g
   id="g4">
		<path
   d="M467,61H165c-24.82,0-45,20.19-45,45c0,24.82,20.18,45,45,45h302c24.81,0,45-20.18,45-45C512,81.19,491.81,61,467,61z"
   id="path2"
   style="fill:#797979;fill-opacity:1" />
	</g>
</g>
<g
   id="g12"
   style="fill:#797979;fill-opacity:1">
	<g
   id="g10"
   style="fill:#797979;fill-opacity:1">
		<path
   d="M467,211H165c-24.82,0-45,20.19-45,45c0,24.82,20.18,45,45,45h302c24.81,0,45-20.18,45-45C512,231.19,491.81,211,467,211z    "
   id="path8"
   style="fill:#797979;fill-opacity:1" />
	</g>
</g>
<g
   id="g18"
   style="fill:#797979;fill-opacity:1">
	<g
   id="g16"
   style="fill:#797979;fill-opacity:1">
		<path
   d="M467,361H165c-24.82,0-45,20.19-45,45c0,24.82,20.18,45,45,45h302c24.81,0,45-20.18,45-45C512,381.19,491.81,361,467,361z    "
   id="path14"
   style="fill:#797979;fill-opacity:1" />
	</g>
</g>
<g
   id="g24"
   style="fill:#797979;fill-opacity:1">
	<g
   id="g22"
   style="fill:#797979;fill-opacity:1">
		<path
   d="M45,61C20.18,61,0,81.19,0,106c0,24.82,20.18,45,45,45c24.81,0,45-20.18,45-45C90,81.19,69.81,61,45,61z"
   id="path20"
   style="fill:#797979;fill-opacity:1" />
	</g>
</g>
<g
   id="g30"
   style="fill:#797979;fill-opacity:1">
	<g
   id="g28"
   style="fill:#797979;fill-opacity:1">
		<path
   d="M45,211c-24.82,0-45,20.19-45,45c0,24.82,20.18,45,45,45c24.81,0,45-20.18,45-45C90,231.19,69.81,211,45,211z"
   id="path26"
   style="fill:#797979;fill-opacity:1" />
	</g>
</g>
<g
   id="g36"
   style="fill:#797979;fill-opacity:1">
	<g
   id="g34"
   style="fill:#797979;fill-opacity:1">
		<path
   d="M45,361c-24.82,0-45,20.19-45,45c0,24.82,20.18,45,45,45c24.81,0,45-20.18,45-45C90,381.19,69.81,361,45,361z"
   id="path32"
   style="fill:#797979;fill-opacity:1" />
	</g>
</g>
<g
   id="g38">
</g>
<g
   id="g40">
</g>
<g
   id="g42">
</g>
<g
   id="g44">
</g>
<g
   id="g46">
</g>
<g
   id="g48">
</g>
<g
   id="g50">
</g>
<g
   id="g52">
</g>
<g
   id="g54">
</g>
<g
   id="g56">
</g>
<g
   id="g58">
</g>
<g
   id="g60">
</g>
<g
   id="g62">
</g>
<g
   id="g64">
</g>
<g
   id="g66">
</g>
</svg>
