<?xml version="1.0" encoding="UTF-8" standalone="no"?>
<svg
   xmlns:dc="http://purl.org/dc/elements/1.1/"
   xmlns:cc="http://creativecommons.org/ns#"
   xmlns:rdf="http://www.w3.org/1999/02/22-rdf-syntax-ns#"
   xmlns:svg="http://www.w3.org/2000/svg"
   xmlns="http://www.w3.org/2000/svg"
   xmlns:sodipodi="http://sodipodi.sourceforge.net/DTD/sodipodi-0.dtd"
   xmlns:inkscape="http://www.inkscape.org/namespaces/inkscape"
   version="1.1"
   x="0px"
   y="0px"
   viewBox="0 0 1000 1000"
   enable-background="new 0 0 1000 1000"
   xml:space="preserve"
   id="svg14"
   sodipodi:docname="monitor.svg"
   inkscape:version="1.0.2 (e86c870879, 2021-01-15, custom)"><defs
   id="defs18" /><sodipodi:namedview
   pagecolor="#ffffff"
   bordercolor="#666666"
   borderopacity="1"
   objecttolerance="10"
   gridtolerance="10"
   guidetolerance="10"
   inkscape:pageopacity="0"
   inkscape:pageshadow="2"
   inkscape:window-width="3440"
   inkscape:window-height="1377"
   id="namedview16"
   showgrid="false"
   inkscape:zoom="1.026"
   inkscape:cx="500"
   inkscape:cy="500"
   inkscape:window-x="-8"
   inkscape:window-y="32"
   inkscape:window-maximized="1"
   inkscape:current-layer="svg14" />
<metadata
   id="metadata2"> Svg Vector Icons : http://www.onlinewebfonts.com/icon <rdf:RDF><cc:Work
     rdf:about=""><dc:format>image/svg+xml</dc:format><dc:type
       rdf:resource="http://purl.org/dc/dcmitype/StillImage" /></cc:Work></rdf:RDF></metadata>
<g
   id="g12"
   style="fill:#797979;fill-opacity:1"><g
     transform="translate(0.000000,511.000000) scale(0.100000,-0.100000)"
     id="g10"
     style="fill:#797979;fill-opacity:1"><path
       d="M655.3,4630.7c-211.3-43.5-422.7-223.8-507.6-428.9L100,4081.7V797.8v-3283.9l68.4-138.8c76.7-157.5,176.1-248.6,335.6-308.7c101.5-37.3,236.2-39.4,4496-39.4h4390.3l118.1,43.5c140.9,53.9,267.3,172,339.8,319.1l51.8,103.6V797.8v3304.6l-68.4,138.8c-78.7,159.5-190.6,269.3-354.3,346l-116,53.9l-4309.5,2.1C2681.6,4645.2,702.9,4639,655.3,4630.7z M9286.7,4017.5c43.5-55.9,43.5-55.9,43.5-2710c0-2370.2-4.2-2660.3-33.1-2701.7l-31.1-45.6H5002.1c-3942.8,0-4268.1,2.1-4292.9,35.2c-24.9,26.9-29,472.4-29,2710c0,2604.4,2.1,2678.9,39.4,2722.4l39.4,43.5h4243.2h4243.2L9286.7,4017.5z M5509.7-2067.6c41.4-37.3,58-72.5,66.3-155.4c8.3-97.4,4.2-111.9-53.9-169.9l-62.2-62.2h-464.1c-329.4,2.1-472.4,8.3-495.2,26.9c-53.9,41.4-80.8,109.8-80.8,201c0,68.4,12.4,99.4,60.1,147.1l60.1,60.1h457.9C5443.4-2020,5453.7-2020,5509.7-2067.6z"
       id="path4"
       style="fill:#797979;fill-opacity:1" /><path
       d="M4778.3,3321.3c-8.3-14.5-20.7-116-26.9-223.8l-10.4-196.8l-72.5-35.2c-39.4-20.7-126.4-60.1-192.7-91.2c-435.1-194.8-625.7-716.9-416.5-1141.6c103.6-213.4,319.1-364.6,843.2-588.4c111.9-47.6,232.1-105.7,269.3-130.5c219.6-149.2,209.3-420.6-18.6-532.5c-201-95.3-542.8-62.2-882.6,87c-176.1,76.7-184.4,72.5-252.8-145C3939.2,76.8,3933,14.6,3974.4-31c51.8-58,269.3-138.8,499.3-184.4c109.8-22.8,207.2-49.7,217.5-58c8.3-8.3,18.6-101.5,22.8-207.2c4.1-120.2,16.6-201,33.1-217.5c33.2-33.1,426.8-37.3,460-4.2c12.4,12.4,24.9,116,29,230c4.1,114,12.4,219.6,20.7,230c6.2,12.4,66.3,41.4,132.6,66.3c329.4,122.2,536.6,327.3,627.8,623.6c116,370.9-45.6,785.2-393.7,1009c-62.2,39.4-246.5,130.5-410.2,203.1c-422.7,184.4-524.2,263.1-524.2,412.3c0,172,140.9,259,424.7,259c196.8,0,331.5-26.9,520-105.7c140.9-60.1,151.3-51.8,225.8,194.8c70.5,234.1,64.2,304.6-31.1,350.2c-68.4,31.1-271.4,91.2-466.2,132.6l-82.9,18.6l-14.5,184.4c-8.3,101.5-26.9,196.8-39.4,211.3C5194.8,3356.5,4803.2,3358.6,4778.3,3321.3z"
       id="path6"
       style="fill:#797979;fill-opacity:1" /><path
       d="M3674-3515.9c-145-169.9-379.2-285.9-698.2-348.1c-246.6-47.6-314.9-95.3-346-242.4c-10.4-45.6-4.2-93.2,24.9-157.5c76.7-172-95.3-159.5,2351.6-159.5h2163l70.4,47.7c45.6,31.1,80.8,78.7,101.5,134.7c26.9,76.7,26.9,97.4,0,174c-41.4,116-122.2,167.8-312.9,201c-300.4,53.9-542.8,172-700.3,346l-84.9,91.2l-1249.3-2.1l-1247.3-2.1L3674-3515.9z"
       id="path8"
       style="fill:#797979;fill-opacity:1" /></g></g>
</svg>
