<svg xmlns="http://www.w3.org/2000/svg" xmlns:xlink="http://www.w3.org/1999/xlink" width="24" height="24" preserveAspectRatio="xMidYMid meet" viewBox="0 0 24 24" style="-ms-transform: rotate(360deg); -webkit-transform: rotate(360deg); transform: rotate(360deg);"><path d="M16 18a2 2 0 1 1 0 4a2 2 0 0 1 0-4zm0 1a1 1 0 1 0 0 2a1 1 0 0 0 0-2zm-9-1a2 2 0 1 1 0 4a2 2 0 0 1 0-4zm0 1a1 1 0 1 0 0 2a1 1 0 0 0 0-2zM18 6H4.273l2.547 6H15a.994.994 0 0 0 .8-.402l3-4h.001A1 1 0 0 0 18 6zm-3 7H6.866L6.1 14.56L6 15a1 1 0 0 0 1 1h11v1H7a2 2 0 0 1-1.75-2.97l.72-1.474L2.338 4H1V3h2l.849 2H18a2 2 0 0 1 1.553 3.26l-2.914 3.886A1.998 1.998 0 0 1 15 13z" fill="#626262"/><rect x="0" y="0" width="24" height="24" fill="rgba(0, 0, 0, 0)" /></svg>